<svg width="500" height="250" viewBox="-0.5 0 9.5 5" xmlns="http://www.w3.org/2000/svg">
  <title>neat. Markup Language</title>
  
  <style>
    /* Default to dark gray for Light Mode */
    .adaptive-logo {
      stroke: #111827; 
      fill: #111827;
    }
    .adaptive-text {
      fill: #111827;
    }

    /* Automatically flip to off-white for Dark Mode */
    @media (prefers-color-scheme: dark) {
      .adaptive-logo {
        stroke: #F9FAFB;
        fill: #F9FAFB;
      }
      .adaptive-text {
        fill: #F9FAFB;
      }
    }
  </style>

  <g class="adaptive-logo" stroke-width=".08" stroke-linejoin="round" stroke-linecap="round">
    <path d="M.402 1.145v.25c.164-.156.426-.25.668-.25s.426.094.59.25a.9.9 0 0 1 .281.656V3.2H1.66V2.036c-.008-.34-.25-.613-.59-.613-.344 0-.66.274-.668.613V3.2H.121V1.145zm3.942 1.058H2.43v.008c0 .441.391.797.84.797a.81.81 0 0 0 .727-.449l.238.113a1.06 1.06 0 0 1-.961.594c-.594 0-1.113-.469-1.113-1.055 0-.164.043-.32.113-.457a1.14 1.14 0 0 1 1-.598c.508 0 .93.348 1.043.813.016.074.027.156.027.234m-1.871-.234h1.563a.81.81 0 0 0-.766-.555.87.87 0 0 0-.758.453q-.023.047-.039.102m4.123-.457v-.367h.281V3.2h-.281v-.289a1.1 1.1 0 0 1-.805.355c-.594 0-1.113-.469-1.113-1.055s.519-1.055 1.113-1.055a1.1 1.1 0 0 1 .805.355zm0 .723v-.047a.806.806 0 0 0-.808-.774c-.449 0-.84.355-.84.797s.391.797.84.797a.806.806 0 0 0 .809-.773z"/>
    <path d="M7.501 1.145h.355v.234h-.355v1.82H7.22v-1.82h-.36v-.234h.359V.254H7.5z"/>
    <circle cx="1.202" cy="3.049" r=".15" transform="translate(7.1)"/>
  </g>
  <text class="adaptive-text" x=".15" y="4.2" font-family="system-ui, -apple-system, sans-serif" font-size=".65" font-weight="600" letter-spacing=".05">Markup Language</text>
</svg>